<?xml version="1.0" encoding="UTF-8"?>
<svg version="1.1" xmlns="http://www.w3.org/2000/svg" width="256" height="256">
<path d="M0 0 C0.86294678 0.49048828 1.72589355 0.98097656 2.61499023 1.48632812 C6.6162157 3.27555264 10.1224687 3.49245475 14.42578125 3.546875 C15.60807564 3.57735931 15.60807564 3.57735931 16.81425476 3.60845947 C18.46887698 3.64846757 20.1236755 3.68170281 21.77856445 3.70849609 C24.32234135 3.75016119 26.86495564 3.81277153 29.40820312 3.87890625 C31.01820224 3.91527459 32.62822831 3.95047283 34.23828125 3.984375 C35.38348991 4.01081085 35.38348991 4.01081085 36.55183411 4.03778076 C38.3677329 4.06474381 40.18429624 4.03788552 42 4 C42.33 3.67 42.66 3.34 43 3 C45.06472747 2.89530182 47.13307004 2.86143756 49.20043945 2.85473633 C49.84764954 2.85137772 50.49485962 2.8480191 51.16168213 2.84455872 C53.31223444 2.83502056 55.46270908 2.83310395 57.61328125 2.83203125 C59.1044264 2.82881981 60.59557122 2.82545583 62.0867157 2.82194519 C65.21821828 2.81594617 68.34969324 2.814106 71.48120117 2.81469727 C75.49292097 2.81479874 79.50446319 2.80116526 83.51614094 2.78392506 C86.59851392 2.77280056 89.68084409 2.77077822 92.76323509 2.77130699 C94.24200234 2.77012683 95.72077068 2.76570303 97.1995182 2.75797462 C99.27026356 2.74816889 101.34062532 2.75105525 103.41137695 2.75708008 C104.5897261 2.75565506 105.76807526 2.75423004 106.98213196 2.75276184 C109.88921256 2.99092376 111.54816726 3.47966819 114 5 C114.79203886 11.01949531 112.43227389 16.16288843 109 21 C105.35137509 24.41879027 102.69351641 25.25106587 97.83203125 25.13671875 C95.82404202 25.00832392 93.81736314 24.85788134 91.8125 24.6875 C84.16518874 24.0960805 76.71945104 24.03380306 69.0690918 24.48364258 C68.19398705 24.53251869 67.31888229 24.58139481 66.41725922 24.63175201 C64.2780106 24.75164121 62.13898066 24.87542161 60 25 C60.00276538 25.67052997 60.00553076 26.34105993 60.00837994 27.03190899 C60.0746373 43.34851123 60.12427934 59.66507085 60.15543652 75.98177624 C60.17090444 83.87242146 60.19199248 91.76297687 60.22631836 99.65356445 C60.25622307 106.53112371 60.27557555 113.40861793 60.28226548 120.2862404 C60.28617595 123.92780345 60.29536436 127.56918042 60.31719017 131.21068382 C60.34135964 135.27620061 60.34196931 139.34139403 60.34057617 143.40698242 C60.351362 144.61395279 60.36214783 145.82092316 60.3732605 147.06446838 C60.36913651 148.17359589 60.36501251 149.28272339 60.36076355 150.42546082 C60.36352893 151.3868909 60.36629431 152.34832098 60.36914349 153.33888531 C59.92731255 156.5239958 58.89123761 158.41969196 57 161 C54.94702148 161.62768555 54.94702148 161.62768555 52.62109375 161.63671875 C51.78255859 161.65669922 50.94402344 161.67667969 50.08007812 161.69726562 C49.20802734 161.69404297 48.33597656 161.69082031 47.4375 161.6875 C45.70693359 161.70405435 43.97641892 161.72841765 42.24609375 161.76171875 C41.47966553 161.76131592 40.7132373 161.76091309 39.92358398 161.76049805 C37.76065441 161.82979705 37.76065441 161.82979705 36 164 C32.91796875 164.30078125 32.91796875 164.30078125 29.1875 164.3125 C27.96417969 164.32925781 26.74085938 164.34601563 25.48046875 164.36328125 C21.73932089 163.97279107 19.86104056 163.42738931 17 161 C15.83407674 156.96664559 15.88501347 153.03088427 15.90234375 148.85473633 C15.90380402 148.1549617 15.90526428 147.45518707 15.9067688 146.73420715 C15.91056049 145.22225546 15.91666185 143.71030815 15.92483521 142.19837379 C15.93763256 139.80726354 15.94412252 137.41620894 15.94897461 135.02507019 C15.96038109 129.95418839 15.97964042 124.88335272 16 119.8125 C16.02358205 113.92572551 16.04396509 108.03897688 16.05593872 102.15216637 C16.06243435 99.79336954 16.074939 97.43465233 16.08764648 95.07588196 C16.09127748 93.63628204 16.0946294 92.19668139 16.09765625 90.75708008 C16.10289307 89.49753006 16.10812988 88.23798004 16.11352539 86.94026184 C16.20493885 84.06623443 16.20493885 84.06623443 15 82 C14.32453125 82.62648438 13.6490625 83.25296875 12.953125 83.8984375 C12.06109375 84.71570313 11.1690625 85.53296875 10.25 86.375 C9.36828125 87.18710938 8.4865625 87.99921875 7.578125 88.8359375 C3.2451848 92.47298124 0.66470946 93.25748679 -5 93 C-6.65 89.7 -8.3 86.4 -10 83 C-10.556875 83.70125 -11.11375 84.4025 -11.6875 85.125 C-22.82769603 98.97497345 -34.8302284 109.66900956 -53 112 C-55.36544975 112.12672052 -57.62976879 112.10305353 -60 112 C-60 112.99 -60 113.98 -60 115 C-59.30390625 115.23203125 -58.6078125 115.4640625 -57.890625 115.703125 C-54.43161394 117.25500564 -51.68124696 119.39318359 -48.75 121.75 C-43.10860281 126.18354137 -37.33808237 130.2316429 -31.28759766 134.09277344 C-11.90505957 146.50119736 -11.90505957 146.50119736 -9.16796875 152.96484375 C-8.9430005 155.69062186 -9.7252708 156.90196286 -11.1875 159.1875 C-11.61417969 159.88230469 -12.04085937 160.57710937 -12.48046875 161.29296875 C-14 163 -14 163 -16.0859375 163.46484375 C-17.03339844 163.72974609 -17.03339844 163.72974609 -18 164 C-18.95717984 165.99045556 -18.95717984 165.99045556 -19.4375 168.375 C-20.37483116 171.51107074 -20.75826144 172.77207508 -23.1875 175.0625 C-29.71362386 177.23787462 -35.02108252 176.17898277 -41.1796875 173.5234375 C-45.22636135 171.33756104 -48.8646096 168.65091958 -52.54760742 165.91430664 C-56.54836874 162.96147904 -60.5753844 160.45303793 -64.9375 158.0625 C-72.19078642 154.04103705 -78.70068594 149.24477985 -85.31494141 144.26025391 C-90.93303743 140.05848461 -96.70658376 136.10822937 -102.68359375 132.4375 C-106.3618988 130.15484189 -109.99512338 127.80165365 -113.62890625 125.44897461 C-116.49252182 123.59788475 -119.36468526 121.77788538 -122.27734375 120.00390625 C-123.74880859 119.10478516 -123.74880859 119.10478516 -125.25 118.1875 C-126.12140625 117.66542969 -126.9928125 117.14335937 -127.890625 116.60546875 C-130.18716188 114.85754901 -131.0251198 113.69004376 -132 111 C-132.4375 107.5625 -132.4375 107.5625 -132 104 C-129.6875 101.25 -129.6875 101.25 -127 99 C-126.484375 98.38125 -125.96875 97.7625 -125.4375 97.125 C-124.963125 96.75375 -124.48875 96.3825 -124 96 C-121.8125 96.3125 -121.8125 96.3125 -120 97 C-119.814375 96.29875 -119.62875 95.5975 -119.4375 94.875 C-117.43281007 90.86562015 -114.9360352 88.18840464 -111 86 C-107.7563996 85.94851428 -105.97907351 86.09837208 -103 87 C-102.37206543 87.18989502 -101.74413086 87.37979004 -101.09716797 87.57543945 C-95.96243354 89.35043359 -92.26661102 91.86957844 -88.0625 95.25 C-82.68535187 99.45707483 -82.68535187 99.45707483 -76.125 100.3125 C-74.00609957 99.77609844 -74.00609957 99.77609844 -72 99 C-71.33742188 98.83757812 -70.67484375 98.67515625 -69.9921875 98.5078125 C-62.21326166 96.28090432 -56.09273648 90.31729593 -52 83.5 C-47.91409601 75.20094933 -48.93799435 67.76973487 -51 59 C-53.91195123 50.58769644 -61.50057333 44.74518567 -69.00390625 40.4375 C-73.38955064 38.33330556 -77.93516027 36.69737872 -82.5546875 35.17919922 C-86.53040108 33.81618045 -88.96079025 32.7568237 -91 29 C-91.495 27.515 -91.495 27.515 -92 26 C-92.93271729 25.98018066 -93.86543457 25.96036133 -94.82641602 25.93994141 C-98.31364365 25.86146957 -101.80047062 25.77476486 -105.28735352 25.68261719 C-106.79150623 25.64452511 -108.29574392 25.60963908 -109.80004883 25.578125 C-111.97247523 25.53204105 -114.14432655 25.47412346 -116.31640625 25.4140625 C-117.62037354 25.3826416 -118.92434082 25.3512207 -120.26782227 25.31884766 C-126.70626782 24.76879795 -131.94084867 23.25869897 -136.75 18.921875 C-138.8406173 15.70755091 -138.18120306 12.81780377 -137.5625 9.171875 C-137 7 -137 7 -136 5 C-135.14172607 5.04543945 -135.14172607 5.04543945 -134.26611328 5.09179688 C-124.46743578 5.6004126 -114.68895416 6.0879626 -104.875 6 C-98.23720412 5.94643288 -91.63061278 6.11932556 -85 6.4375 C-84.1322998 6.47681641 -83.26459961 6.51613281 -82.37060547 6.55664062 C-76.24777161 6.8761142 -76.24777161 6.8761142 -74 8 C-75.55500981 11.81684226 -78.03595495 14.19195732 -81 17 C-79.4221875 16.4740625 -79.4221875 16.4740625 -77.8125 15.9375 C-74.2045319 15.05029473 -72.47367511 14.94737118 -69 16 C-69.495 13.525 -69.495 13.525 -70 11 C-62.63410229 5.97779702 -54.40636477 4.11672402 -45.5625 5.6875 C-41.9134165 6.60558152 -39.06481638 7.76351237 -36 10 C-35.17048828 10.55880859 -35.17048828 10.55880859 -34.32421875 11.12890625 C-30.46028656 13.76829462 -27.27862096 16.64513204 -24 20 C-22.86884766 20.86818359 -22.86884766 20.86818359 -21.71484375 21.75390625 C-13.06846681 28.62666741 -8.23585801 38.19079184 -6 49 C-5.92181364 50.51395696 -5.89210091 52.03093507 -5.90234375 53.546875 C-5.90556641 54.39121094 -5.90878906 55.23554687 -5.91210938 56.10546875 C-5.92048828 56.97816406 -5.92886719 57.85085937 -5.9375 58.75 C-5.94201172 59.63816406 -5.94652344 60.52632812 -5.95117188 61.44140625 C-5.962926 63.62767329 -5.97935751 65.81380179 -6 68 C-5.51789063 67.566875 -5.03578125 67.13375 -4.5390625 66.6875 C-3.90742188 66.130625 -3.27578125 65.57375 -2.625 65 C-1.99851563 64.443125 -1.37203125 63.88625 -0.7265625 63.3125 C1 62 1 62 3 62 C3 61.34 3 60.68 3 60 C5.96187272 57.82796 8.50685991 56.16438003 12 55 C12.48895449 52.4598968 12.96609863 49.91837482 13.4375 47.375 C13.63956055 46.33472656 13.63956055 46.33472656 13.84570312 45.2734375 C15.13554986 38.22646995 15.5717485 31.14433282 16 24 C14.62279785 24.0611499 14.62279785 24.0611499 13.21777344 24.12353516 C9.8037967 24.26999657 6.38971422 24.40679785 2.97509766 24.53710938 C1.49870326 24.59542647 0.02245456 24.65756463 -1.45361328 24.72363281 C-3.57818061 24.81805803 -5.70289674 24.89862513 -7.828125 24.9765625 C-9.1059082 25.02893066 -10.38369141 25.08129883 -11.70019531 25.13525391 C-14.82230558 25.00728342 -16.41403969 24.66891271 -19 23 C-19 22.34 -19 21.68 -19 21 C-19.66 21 -20.32 21 -21 21 C-21 20.34 -21 19.68 -21 19 C-21.556875 18.79375 -22.11375 18.5875 -22.6875 18.375 C-25.92501302 16.44999226 -27.68231141 13.96149098 -30 11 C-29.5625 8.671875 -29.5625 8.671875 -28 6 C-25.11827568 4.63025336 -22.09977542 3.96496368 -19 3.25 C-17.35386732 2.83974093 -15.7080196 2.42833623 -14.0625 2.015625 C-12.96615234 1.75700684 -12.96615234 1.75700684 -11.84765625 1.49316406 C-4.0538435 -0.58710837 -4.0538435 -0.58710837 0 0 Z " fill="#F4AB47" transform="translate(139,63)"/>
<path d="M0 0 C0.86294678 0.49048828 1.72589355 0.98097656 2.61499023 1.48632812 C6.6162157 3.27555264 10.1224687 3.49245475 14.42578125 3.546875 C15.60807564 3.57735931 15.60807564 3.57735931 16.81425476 3.60845947 C18.46887698 3.64846757 20.1236755 3.68170281 21.77856445 3.70849609 C24.32234135 3.75016119 26.86495564 3.81277153 29.40820312 3.87890625 C31.01820224 3.91527459 32.62822831 3.95047283 34.23828125 3.984375 C35.00175369 4.0019989 35.76522614 4.0196228 36.55183411 4.03778076 C38.3677329 4.06474381 40.18429624 4.03788552 42 4 C42.33 3.67 42.66 3.34 43 3 C45.06472747 2.89530182 47.13307004 2.86143756 49.20043945 2.85473633 C49.84764954 2.85137772 50.49485962 2.8480191 51.16168213 2.84455872 C53.31223444 2.83502056 55.46270908 2.83310395 57.61328125 2.83203125 C59.1044264 2.82881981 60.59557122 2.82545583 62.0867157 2.82194519 C65.21821828 2.81594617 68.34969324 2.814106 71.48120117 2.81469727 C75.49292097 2.81479874 79.50446319 2.80116526 83.51614094 2.78392506 C86.59851392 2.77280056 89.68084409 2.77077822 92.76323509 2.77130699 C94.24200234 2.77012683 95.72077068 2.76570303 97.1995182 2.75797462 C99.27026356 2.74816889 101.34062532 2.75105525 103.41137695 2.75708008 C104.5897261 2.75565506 105.76807526 2.75423004 106.98213196 2.75276184 C109.88921256 2.99092376 111.54816726 3.47966819 114 5 C114.79203886 11.01949531 112.43227389 16.16288843 109 21 C105.35137509 24.41879027 102.69351641 25.25106587 97.83203125 25.13671875 C95.82404202 25.00832392 93.81736314 24.85788134 91.8125 24.6875 C84.16518874 24.0960805 76.71945104 24.03380306 69.0690918 24.48364258 C68.19398705 24.53251869 67.31888229 24.58139481 66.41725922 24.63175201 C64.2780106 24.75164121 62.13898066 24.87542161 60 25 C60.00276538 25.67052997 60.00553076 26.34105993 60.00837994 27.03190899 C60.0746373 43.34851123 60.12427934 59.66507085 60.15543652 75.98177624 C60.17090444 83.87242146 60.19199248 91.76297687 60.22631836 99.65356445 C60.25622307 106.53112371 60.27557555 113.40861793 60.28226548 120.2862404 C60.28617595 123.92780345 60.29536436 127.56918042 60.31719017 131.21068382 C60.34135964 135.27620061 60.34196931 139.34139403 60.34057617 143.40698242 C60.351362 144.61395279 60.36214783 145.82092316 60.3732605 147.06446838 C60.36913651 148.17359589 60.36501251 149.28272339 60.36076355 150.42546082 C60.36352893 151.3868909 60.36629431 152.34832098 60.36914349 153.33888531 C59.92731255 156.5239958 58.89123761 158.41969196 57 161 C54.94702148 161.62768555 54.94702148 161.62768555 52.62109375 161.63671875 C51.78255859 161.65669922 50.94402344 161.67667969 50.08007812 161.69726562 C49.20802734 161.69404297 48.33597656 161.69082031 47.4375 161.6875 C45.70693359 161.70405435 43.97641892 161.72841765 42.24609375 161.76171875 C41.47966553 161.76131592 40.7132373 161.76091309 39.92358398 161.76049805 C37.76065441 161.82979705 37.76065441 161.82979705 36 164 C32.91796875 164.30078125 32.91796875 164.30078125 29.1875 164.3125 C27.96417969 164.32925781 26.74085938 164.34601563 25.48046875 164.36328125 C21.73932089 163.97279107 19.86104056 163.42738931 17 161 C15.83407674 156.96664559 15.88501347 153.03088427 15.90234375 148.85473633 C15.90380402 148.1549617 15.90526428 147.45518707 15.9067688 146.73420715 C15.91056049 145.22225546 15.91666185 143.71030815 15.92483521 142.19837379 C15.93763256 139.80726354 15.94412252 137.41620894 15.94897461 135.02507019 C15.96038109 129.95418839 15.97964042 124.88335272 16 119.8125 C16.02358205 113.92572551 16.04396509 108.03897688 16.05593872 102.15216637 C16.06243435 99.79336954 16.074939 97.43465233 16.08764648 95.07588196 C16.09127748 93.63628204 16.0946294 92.19668139 16.09765625 90.75708008 C16.10289307 89.49753006 16.10812988 88.23798004 16.11352539 86.94026184 C16.20493885 84.06623443 16.20493885 84.06623443 15 82 C14.32453125 82.62648438 13.6490625 83.25296875 12.953125 83.8984375 C12.06109375 84.71570313 11.1690625 85.53296875 10.25 86.375 C9.36828125 87.18710938 8.4865625 87.99921875 7.578125 88.8359375 C3.2451848 92.47298124 0.66470946 93.25748679 -5 93 C-7.475 88.05 -7.475 88.05 -10 83 C-10.66 83 -11.32 83 -12 83 C-12 82.34 -12 81.68 -12 81 C-11.34 81 -10.68 81 -10 81 C-10.350625 80.4225 -10.70125 79.845 -11.0625 79.25 C-12 77 -12 77 -11.8125 74.875 C-11 73 -11 73 -8 71 C-7.34 70.01 -6.68 69.02 -6 68 C-4.86696601 66.90170526 -3.69755344 65.84006174 -2.5 64.8125 C-1.8915625 64.28269531 -1.283125 63.75289062 -0.65625 63.20703125 C1 62 1 62 3 62 C3 61.34 3 60.68 3 60 C5.96187272 57.82796 8.50685991 56.16438003 12 55 C12.48895449 52.4598968 12.96609863 49.91837482 13.4375 47.375 C13.57220703 46.68148437 13.70691406 45.98796875 13.84570312 45.2734375 C15.13554986 38.22646995 15.5717485 31.14433282 16 24 C14.62279785 24.0611499 14.62279785 24.0611499 13.21777344 24.12353516 C9.8037967 24.26999657 6.38971422 24.40679785 2.97509766 24.53710938 C1.49870326 24.59542647 0.02245456 24.65756463 -1.45361328 24.72363281 C-3.57818061 24.81805803 -5.70289674 24.89862513 -7.828125 24.9765625 C-9.1059082 25.02893066 -10.38369141 25.08129883 -11.70019531 25.13525391 C-14.82230558 25.00728342 -16.41403969 24.66891271 -19 23 C-19 22.34 -19 21.68 -19 21 C-19.66 21 -20.32 21 -21 21 C-21 20.34 -21 19.68 -21 19 C-21.8353125 18.690625 -21.8353125 18.690625 -22.6875 18.375 C-25.92501302 16.44999226 -27.68231141 13.96149098 -30 11 C-29.5625 8.671875 -29.5625 8.671875 -28 6 C-25.11827568 4.63025336 -22.09977542 3.96496368 -19 3.25 C-17.35386732 2.83974093 -15.7080196 2.42833623 -14.0625 2.015625 C-12.96615234 1.75700684 -12.96615234 1.75700684 -11.84765625 1.49316406 C-4.0538435 -0.58710837 -4.0538435 -0.58710837 0 0 Z " fill="#FBBE53" transform="translate(139,63)"/>
<path d="M0 0 C5.05895603 2.28555213 9.59646834 5.35702436 12.125 10.4375 C13.63041379 16.56668471 14.06647081 20.71052428 10.875 26.1875 C5.00085629 34.48329627 5.00085629 34.48329627 -0.359375 35.40625 C-6.9729085 35.64674213 -12.0320921 34.48989087 -17.20703125 30.1484375 C-21.03899702 26.35002659 -23.51869776 23.40327323 -23.6875 17.875 C-23.12463872 11.81486017 -21.32224053 7.03053025 -17.125 2.5625 C-12.01684434 -1.43330887 -6.13489904 -1.2051991 0 0 Z " fill="#F1A245" transform="translate(204,15)"/>
<path d="M0 0 C-0.62601167 6.26011667 -1.64892588 10.8619682 -6.4140625 15.1953125 C-10.99102798 18.10667343 -16.00375466 17.12803555 -21.1875 16.6875 C-28.83481126 16.0960805 -36.28054896 16.03380306 -43.9309082 16.48364258 C-44.80601295 16.53251869 -45.68111771 16.58139481 -46.58274078 16.63175201 C-48.7219894 16.75164121 -50.86101934 16.87542161 -53 17 C-52.99723462 17.67052997 -52.99446924 18.34105993 -52.99162006 19.03190899 C-52.9253627 35.34851123 -52.87572066 51.66507085 -52.84456348 67.98177624 C-52.82909556 75.87242146 -52.80800752 83.76297687 -52.77368164 91.65356445 C-52.74377693 98.53112371 -52.72442445 105.40861793 -52.71773452 112.2862404 C-52.71382405 115.92780345 -52.70463564 119.56918042 -52.68280983 123.21068382 C-52.65864036 127.27620061 -52.65803069 131.34139403 -52.65942383 135.40698242 C-52.648638 136.61395279 -52.63785217 137.82092316 -52.6267395 139.06446838 C-52.63292549 140.72815964 -52.63292549 140.72815964 -52.63923645 142.42546082 C-52.63647107 143.3868909 -52.63370569 144.34832098 -52.63085651 145.33888531 C-53.07908998 148.57015098 -53.99538462 150.43487579 -56 153 C-59.02928372 153.56120814 -61.52114427 153.79102022 -64.5625 153.8125 C-65.81123901 153.84911743 -65.81123901 153.84911743 -67.08520508 153.88647461 C-69.72392471 153.95426142 -72.36049497 153.98261577 -75 154 C-75.8755957 154.00837891 -76.75119141 154.01675781 -77.65332031 154.02539062 C-82.76980787 154.06759637 -87.88367463 154.05501425 -93 154 C-93 153.67 -93 153.34 -93 153 C-88.71 153 -84.42 153 -80 153 C-80 147.39 -80 141.78 -80 136 C-79.34 136 -78.68 136 -78 136 C-77.93941406 136.58007812 -77.87882813 137.16015625 -77.81640625 137.7578125 C-77.73261719 138.53898438 -77.64882812 139.32015625 -77.5625 140.125 C-77.48128906 140.89070312 -77.40007812 141.65640625 -77.31640625 142.4453125 C-76.96178358 145.30856218 -76.4743119 148.15412857 -76 151 C-70.72 151 -65.44 151 -60 151 C-59.96241577 148.67533691 -59.96241577 148.67533691 -59.92407227 146.30371094 C-58.98705114 88.86111987 -58.98705114 88.86111987 -58 67 C-57.34 67 -56.68 67 -56 67 C-56.11780666 60.54031583 -56.24263359 54.08079452 -56.37231445 47.62133789 C-56.41559452 45.42442898 -56.45727445 43.22748793 -56.49731445 41.03051758 C-56.55518487 37.87050701 -56.61883107 34.71065716 -56.68359375 31.55078125 C-56.70030624 30.57039383 -56.71701874 29.59000641 -56.73423767 28.57991028 C-56.7641555 27.19904488 -56.7641555 27.19904488 -56.79467773 25.7902832 C-56.81022202 24.9842012 -56.8257663 24.1781192 -56.84178162 23.34761047 C-57.01142587 20.83046541 -57.49624274 18.46943143 -58 16 C-58 15.01 -58 14.02 -58 13 C-57.42450409 12.99492935 -56.84900818 12.9898587 -56.256073 12.9846344 C-50.25193978 12.9230097 -44.25133964 12.7993044 -38.24902344 12.63989258 C-36.01072425 12.58855098 -33.77200647 12.55291085 -31.53320312 12.53344727 C-28.30880341 12.5026637 -25.09013965 12.415013 -21.8671875 12.31640625 C-20.37153763 12.32046227 -20.37153763 12.32046227 -18.84567261 12.32460022 C-13.36419057 12.12670505 -13.36419057 12.12670505 -9.09869385 8.97994995 C-7.48544009 6.58826889 -7.48544009 6.58826889 -6.22341919 4.11778259 C-4.67385901 1.43543822 -3.21404204 0 0 0 Z " fill="#DCBB85" transform="translate(252,71)"/>
<path d="M0 0 C0.85827393 0.04543945 0.85827393 0.04543945 1.73388672 0.09179688 C12.37163424 0.64396584 22.96735697 1.07579546 33.62011719 0.98046875 C40.77866175 0.94143988 47.86713984 1.41085521 55 2 C53.6328125 3.5625 52.265625 5.125 50.8984375 6.6875 C48.97671608 8.83168071 48.97671608 8.83168071 48.07202148 11 C46.62367599 13.69068539 45.4804723 15.17820774 43 17 C37.10702211 18.17115964 31.30019416 18.07530187 25.3125 18 C23.6790145 18.00809859 22.0455426 18.01978199 20.41210938 18.03515625 C16.27371753 18.06577694 12.13826331 18.04206918 8 18 C7.01 18 6.02 18 5 18 C2.07293875 16.48727507 -0.1110391 14.70609567 -2 12 C-2.43554471 7.81108466 -1.89023506 3.78047011 0 0 Z " fill="#FCAC4B" transform="translate(3,68)"/>
<path d="M0 0 C3.71613904 -0.56092665 5.05564063 0.03472607 8.3046875 2.0625 C9.51300919 3.01909499 10.70244997 3.99987915 11.875 5 C12.49270264 5.52529297 13.11040527 6.05058594 13.74682617 6.59179688 C21.09117037 13.29577548 24.91031325 22.36190033 27 32 C27.12080196 34.80372921 27.18509164 37.5716707 27.1875 40.375 C27.19974609 41.1175 27.21199219 41.86 27.22460938 42.625 C27.23650054 47.11193239 26.89096413 50.84113538 25 55 C24.01 55.66 23.02 56.32 22 57 C22.495 60.465 22.495 60.465 23 64 C22.34 64 21.68 64 21 64 C20.95875 64.845625 20.9175 65.69125 20.875 66.5625 C19.69615028 71.19369535 17.25986836 73.62028354 14 77 C13.2575 77.825 12.515 78.65 11.75 79.5 C-0.19512942 90.35920857 -12.88731327 95.51976409 -29 95 C-29 96.65 -29 98.3 -29 100 C-31.96175123 99.38722388 -33.38058783 98.74627478 -36 97 C-36 96.34 -36 95.68 -36 95 C-34.865625 94.773125 -33.73125 94.54625 -32.5625 94.3125 C-14.64799908 90.26546425 1.85697468 85.54161216 12.25 69.1875 C14.69078112 64.87325445 16.47714006 60.4897472 18.0546875 55.796875 C18.69784317 53.89398467 19.39298373 52.00805485 20.1328125 50.140625 C22.36958879 44.4782962 23.81211298 40.09084733 23 34 C21.60445013 31.05909852 21.60445013 31.05909852 20.32421875 29.171875 C18.90673059 26.84702717 17.77076826 24.43815406 16.62060547 21.97265625 C13.34157922 15.01369084 9.49629274 9.41696481 4 4 C3.26136719 3.26007813 2.52273437 2.52015625 1.76171875 1.7578125 C0.88966797 0.88769531 0.88966797 0.88769531 0 0 Z " fill="#CF9042" transform="translate(106,80)"/>
<path d="M0 0 C0.33 0 0.66 0 1 0 C1.04630135 10.11810524 1.081858 20.23618536 1.10362434 30.35437489 C1.11407008 35.05245005 1.12824368 39.75045283 1.15087891 44.44848633 C1.17257914 48.98072205 1.18456268 53.51288808 1.18975449 58.04517174 C1.19345532 59.77596827 1.20068194 61.50676091 1.21146011 63.23752785 C1.22593762 65.65819221 1.22797952 68.07856702 1.22705078 70.49926758 C1.23424133 71.21783936 1.24143188 71.93641113 1.24884033 72.67675781 C1.23354469 76.35098917 1.09754767 77.8536785 -1 81 C-3.89715988 81.39866381 -6.59029383 81.60757404 -9.5 81.6875 C-10.33700439 81.72093506 -11.17400879 81.75437012 -12.03637695 81.78881836 C-20.68870425 82.10063583 -29.34376166 82.09307783 -38 82 C-38 81.67 -38 81.34 -38 81 C-33.71 81 -29.42 81 -25 81 C-25 75.39 -25 69.78 -25 64 C-24.34 64 -23.68 64 -23 64 C-22.93941406 64.58007812 -22.87882813 65.16015625 -22.81640625 65.7578125 C-22.73261719 66.53898437 -22.64882812 67.32015625 -22.5625 68.125 C-22.44068359 69.27355469 -22.44068359 69.27355469 -22.31640625 70.4453125 C-21.96178358 73.30856218 -21.4743119 76.15412857 -21 79 C-15.72 79 -10.44 79 -5 79 C-4.96241577 76.62820557 -4.96241577 76.62820557 -4.92407227 74.20849609 C-4.82852061 68.23317995 -4.72868692 62.25794115 -4.62768555 56.28271484 C-4.58488587 53.71697829 -4.54318385 51.15122313 -4.50268555 48.58544922 C-4.25119041 32.70710171 -3.83484668 16.85901385 -3 1 C-2.34 1.66 -1.68 2.32 -1 3 C-0.67 2.01 -0.34 1.02 0 0 Z " fill="#BC782D" transform="translate(197,143)"/>
<path d="M0 0 C0.89380371 0.49121338 1.78760742 0.98242676 2.70849609 1.48852539 C6.37160374 3.17064225 8.91850863 3.42297585 12.9296875 3.51171875 C14.21875 3.54716797 15.5078125 3.58261719 16.8359375 3.61914062 C18.18228642 3.64223493 19.52864072 3.66501755 20.875 3.6875 C22.24482371 3.72070883 23.61461692 3.75520175 24.984375 3.79101562 C28.3228341 3.87330159 31.66103685 3.94251928 35 4 C35 4.66 35 5.32 35 6 C34.24976563 6.03738281 33.49953125 6.07476562 32.7265625 6.11328125 C26.54726604 6.5101882 21.05305287 7.35549034 15.1796875 9.31640625 C13 10 13 10 9.75 10.4375 C6.20442718 11.1627308 3.9320946 12.93420608 1 15 C0.34 15 -0.32 15 -1 15 C-1 14.34 -1 13.68 -1 13 C-2.093125 12.87625 -3.18625 12.7525 -4.3125 12.625 C-8 12 -8 12 -11 10 C-13.02249579 9.54723252 -13.02249579 9.54723252 -15.23046875 9.3671875 C-16.03291016 9.28339844 -16.83535156 9.19960937 -17.66210938 9.11328125 C-18.49548828 9.03464844 -19.32886719 8.95601562 -20.1875 8.875 C-21.4549707 8.74544922 -21.4549707 8.74544922 -22.74804688 8.61328125 C-24.83128923 8.4014261 -26.91556042 8.19973223 -29 8 C-28 6 -28 6 -26.26586914 5.32983398 C-25.52973389 5.13719971 -24.79359863 4.94456543 -24.03515625 4.74609375 C-22.83536133 4.42415039 -22.83536133 4.42415039 -21.61132812 4.09570312 C-20.77021484 3.87849609 -19.92910156 3.66128906 -19.0625 3.4375 C-17.40710338 3.00039373 -15.75213365 2.56166657 -14.09765625 2.12109375 C-13.36039307 1.9295874 -12.62312988 1.73808105 -11.86352539 1.54077148 C-4.3719728 -0.63318227 -4.3719728 -0.63318227 0 0 Z " fill="#FDFCC6" transform="translate(139,63)"/>
<path d="M0 0 C2.93453261 0.36681658 3.86437246 0.86437246 6 3 C6.61359375 3.14695313 7.2271875 3.29390625 7.859375 3.4453125 C10.4822567 4.12496433 12.06230618 5.27630067 14.25 6.875 C18.13922604 9.67362705 22.05502132 12.42036819 26.01293945 15.12036133 C28.76316576 16.99824675 31.50415336 18.88927792 34.24267578 20.78417969 C35.67938803 21.77818177 37.11863101 22.76852512 38.55859375 23.7578125 C43.30603571 27.14487635 47.98583663 30.9357996 51 36 C50.54864419 40.60382929 48.18977039 43.7135699 45 47 C44.01 47 43.02 47 42 47 C41.80664062 47.62648437 41.61328125 48.25296875 41.4140625 48.8984375 C41.15367188 49.71570313 40.89328125 50.53296875 40.625 51.375 C40.24214844 52.59316406 40.24214844 52.59316406 39.8515625 53.8359375 C39 56 39 56 37 58 C34.375 58.125 34.375 58.125 32 58 C32.51536723 55.42316387 33.00511863 52.98537534 33.875 50.5 C34.29551606 47.75170523 34.29551606 47.75170523 31.8125 45.375 C30.14695506 43.96853983 28.44844168 42.5975115 26.6875 41.3125 C26.130625 40.879375 25.57375 40.44625 25 40 C25 39.34 25 38.68 25 38 C26.32 38.33 27.64 38.66 29 39 C29 39.66 29 40.32 29 41 C32.64793184 42.27253436 36.1936543 43.32829194 40 44 C42.19578473 41.32687076 43.19649201 39.32881882 44 36 C44.66 35.67 45.32 35.34 46 35 C45.34 34.34 44.68 33.68 44 33 C44 32.34 44 31.68 44 31 C42.38955783 29.61428534 42.38955783 29.61428534 40.265625 28.2421875 C39.07030151 27.43237427 39.07030151 27.43237427 37.85083008 26.60620117 C36.99255615 26.03490479 36.13428223 25.4636084 35.25 24.875 C34.38850342 24.29403564 33.52700684 23.71307129 32.6394043 23.11450195 C30.0975121 21.40272204 27.54961222 19.70025314 25 18 C23.68863678 17.12134041 22.37741911 16.24246351 21.06640625 15.36328125 C18.38219699 13.56843784 15.69410636 11.77993853 13 10 C13 10.66 13 11.32 13 12 C9.41486894 10.37815499 6.41007677 8.20743761 3.25 5.875 C2.26515625 5.15054688 1.2803125 4.42609375 0.265625 3.6796875 C-0.48203125 3.12539062 -1.2296875 2.57109375 -2 2 C-1.34 1.34 -0.68 0.68 0 0 Z " fill="#A16628" transform="translate(79,180)"/>
<path d="M0 0 C-0.6269675 6.26967499 -1.6232273 10.90783985 -6.47509766 15.17871094 C-11.26598974 17.65412685 -14.92786748 17.31834128 -20.2109375 16.953125 C-21.17907379 16.90307312 -22.14721008 16.85302124 -23.14468384 16.80145264 C-26.22295142 16.63770012 -29.29852418 16.44429361 -32.375 16.25 C-34.46733947 16.13345316 -36.55978806 16.01884802 -38.65234375 15.90625 C-43.7697663 15.6266445 -48.88497871 15.32044085 -54 15 C-54 17.31 -54 19.62 -54 22 C-55.32 21.34 -56.64 20.68 -58 20 C-58 17.69 -58 15.38 -58 13 C-57.13675613 12.99239403 -57.13675613 12.99239403 -56.256073 12.9846344 C-50.25193978 12.9230097 -44.25133964 12.7993044 -38.24902344 12.63989258 C-36.01072425 12.58855098 -33.77200647 12.55291085 -31.53320312 12.53344727 C-28.30880341 12.5026637 -25.09013965 12.415013 -21.8671875 12.31640625 C-20.37153763 12.32046227 -20.37153763 12.32046227 -18.84567261 12.32460022 C-13.36419057 12.12670505 -13.36419057 12.12670505 -9.09869385 8.97994995 C-7.48544009 6.58826889 -7.48544009 6.58826889 -6.22341919 4.11778259 C-4.67385901 1.43543822 -3.21404204 0 0 0 Z " fill="#B47933" transform="translate(252,71)"/>
<path d="M0 0 C-1.05558963 2.55100828 -1.76455529 3.83590217 -4.0625 5.4375 C-6.24723956 6.8418004 -6.24723956 6.8418004 -6.375 9.375 C-7.13819931 12.58043712 -8.61744307 13.92251577 -11.16061401 15.94143677 C-14.478628 17.85094768 -17.76129231 17.6544429 -21.50390625 17.55859375 C-22.30481186 17.55626236 -23.10571747 17.55393097 -23.93089294 17.55152893 C-25.61606572 17.54182721 -27.30120764 17.52012264 -28.98608398 17.48706055 C-31.55827384 17.4375813 -34.12854855 17.42557167 -36.70117188 17.41992188 C-38.34377024 17.40583637 -39.9863521 17.38963213 -41.62890625 17.37109375 C-42.39360733 17.36573105 -43.15830841 17.36036835 -43.94618225 17.35484314 C-48.05085622 17.26382946 -51.30309176 16.82676669 -55 15 C-55 14.67 -55 14.34 -55 14 C-43.12 14 -31.24 14 -19 14 C-18.34 12.68 -17.68 11.36 -17 10 C-15.70418075 8.24254514 -14.36771533 6.51460162 -13 4.8125 C-11.948125 3.49185547 -11.948125 3.49185547 -10.875 2.14453125 C-7.38043848 -1.85237349 -4.99709022 -0.83284837 0 0 Z " fill="#7F5026" transform="translate(65,71)"/>
<path d="M0 0 C0.495 0.99 0.495 0.99 1 2 C0.24976563 2.03738281 -0.50046875 2.07476562 -1.2734375 2.11328125 C-7.45273396 2.5101882 -12.94694713 3.35549034 -18.8203125 5.31640625 C-21 6 -21 6 -24.25 6.4375 C-27.79557282 7.1627308 -30.0679054 8.93420608 -33 11 C-33.66 11 -34.32 11 -35 11 C-35 10.34 -35 9.68 -35 9 C-36.093125 8.87625 -37.18625 8.7525 -38.3125 8.625 C-42 8 -42 8 -45 6 C-47.02249579 5.54723252 -47.02249579 5.54723252 -49.23046875 5.3671875 C-50.03291016 5.28339844 -50.83535156 5.19960937 -51.66210938 5.11328125 C-52.91217773 4.99533203 -52.91217773 4.99533203 -54.1875 4.875 C-55.03248047 4.78863281 -55.87746094 4.70226562 -56.74804688 4.61328125 C-58.83128923 4.4014261 -60.91556042 4.19973223 -63 4 C-62.67 3.34 -62.34 2.68 -62 2 C-59.06195004 1.91913624 -56.12611925 1.8595717 -53.1875 1.8125 C-52.35412109 1.78736328 -51.52074219 1.76222656 -50.66210938 1.73632812 C-49.45844727 1.72182617 -49.45844727 1.72182617 -48.23046875 1.70703125 C-47.12288208 1.68346558 -47.12288208 1.68346558 -45.99291992 1.65942383 C-43.44272515 2.0952344 -42.55824151 2.97376263 -41 5 C-41 5.66 -41 6.32 -41 7 C-36.51958638 5.78655465 -32.21480074 4.38178522 -27.89453125 2.68359375 C-24.17233994 1.34053503 -20.75053298 0.84449844 -16.796875 0.68359375 C-15.8171875 0.64169922 -14.8375 0.59980469 -13.828125 0.55664062 C-12.81234375 0.51732422 -11.7965625 0.47800781 -10.75 0.4375 C-9.71875 0.39431641 -8.6875 0.35113281 -7.625 0.30664062 C-5.0834613 0.20074318 -2.54182804 0.09866557 0 0 Z " fill="#FEF67D" transform="translate(173,67)"/>
<path d="M0 0 C0.66 0 1.32 0 2 0 C2 0.66 2 1.32 2 2 C10.91 2 19.82 2 29 2 C26.70295125 6.59409751 25.52856666 7.6959924 21 10 C17.22335015 11.06092148 13.90251332 11.51886316 10 11 C5.3123529 8.34947256 2.18552031 4.90382915 0 0 Z " fill="#FCAF4E" transform="translate(182,38)"/>
<path d="M0 0 C0.33 0 0.66 0 1 0 C1 13.2 1 26.4 1 40 C0.34 39.34 -0.32 38.68 -1 38 C-1.99 38.495 -1.99 38.495 -3 39 C-3 26.46 -3 13.92 -3 1 C-2.34 1.66 -1.68 2.32 -1 3 C-0.67 2.01 -0.34 1.02 0 0 Z " fill="#A86121" transform="translate(197,143)"/>
<path d="M0 0 C2.93453261 0.36681658 3.86437246 0.86437246 6 3 C6.61359375 3.14695313 7.2271875 3.29390625 7.859375 3.4453125 C10.4822567 4.12496433 12.06230618 5.27630067 14.25 6.875 C18.8797387 10.20262469 23.54870642 13.46224416 28.25 16.6875 C28.92321289 17.15075684 29.59642578 17.61401367 30.29003906 18.09130859 C34.17246821 20.7598789 38.07356468 23.39660267 42 26 C40.41015625 26.78125 40.41015625 26.78125 38 27 C35.64712 25.5852747 33.59436584 24.17076183 31.4375 22.5 C30.19574837 21.57318775 28.95223484 20.64873173 27.70703125 19.7265625 C27.08779785 19.26540039 26.46856445 18.80423828 25.83056641 18.32910156 C21.70068716 15.33056027 17.34288386 12.67663454 13 10 C13 10.66 13 11.32 13 12 C9.41486894 10.37815499 6.41007677 8.20743761 3.25 5.875 C2.26515625 5.15054688 1.2803125 4.42609375 0.265625 3.6796875 C-0.48203125 3.12539062 -1.2296875 2.57109375 -2 2 C-1.34 1.34 -0.68 0.68 0 0 Z " fill="#C68F48" transform="translate(79,180)"/>
<path d="M0 0 C0.85827393 0.04543945 0.85827393 0.04543945 1.73388672 0.09179688 C12.37163424 0.64396584 22.96735697 1.07579546 33.62011719 0.98046875 C40.77866175 0.94143988 47.86713984 1.41085521 55 2 C55 2.33 55 2.66 55 3 C37.18 3.33 19.36 3.66 1 4 C1.22919044 12.34149382 1.22919044 12.34149382 4 16 C1.53199953 14.84826645 -0.04783565 13.95216435 -2 12 C-2.01171875 9.6875 -2.01171875 9.6875 -1.6875 7 C-1.58824219 6.113125 -1.48898438 5.22625 -1.38671875 4.3125 C-1 2 -1 2 0 0 Z " fill="#FBCE90" transform="translate(3,68)"/>
<path d="M0 0 C0.99 0 1.98 0 3 0 C3.02467759 5.37515933 3.04284928 10.75028585 3.05493164 16.12548828 C3.05996737 17.95492121 3.06679627 19.78435009 3.07543945 21.61376953 C3.08753824 24.23991898 3.09323583 26.86601532 3.09765625 29.4921875 C3.10281754 30.31306854 3.10797882 31.13394958 3.11329651 31.97970581 C3.11387171 37.77225659 3.11387171 37.77225659 2 40 C1.34 40 0.68 40 0 40 C0 26.8 0 13.6 0 0 Z " fill="#FCF5DC" transform="translate(193,92)"/>
<path d="M0 0 C-0.32701089 5.39567977 -3.47324729 8.26027914 -7 12 C-7.86625 12.969375 -8.7325 13.93875 -9.625 14.9375 C-12 17 -12 17 -16 17 C-18.0302589 17.93704257 -20.03696582 18.92925408 -22 20 C-22 19.34 -22 18.68 -22 18 C-20.4609375 16.5546875 -20.4609375 16.5546875 -18.375 14.875 C-14.73763553 11.79871834 -11.96074093 8.58664003 -9.2265625 4.69921875 C-6.62300654 1.09238168 -4.40549919 0 0 0 Z " fill="#C88839" transform="translate(127,145)"/>
<path d="M0 0 C0.99 0 1.98 0 3 0 C3 1.65 3 3.3 3 5 C2.01 5 1.02 5 0 5 C-0.26039063 5.59554687 -0.52078125 6.19109375 -0.7890625 6.8046875 C-2.07851588 9.14234169 -3.33539622 10.42384575 -5.375 12.125 C-6.25285156 12.87136719 -6.25285156 12.87136719 -7.1484375 13.6328125 C-11.19240883 16.61886728 -13.95431444 17.22934934 -19 17 C-19 16.34 -19 15.68 -19 15 C-17.69741955 14.11987807 -16.38827181 13.24877815 -15.05859375 12.41015625 C-9.74352368 8.76928282 -4.55656163 4.55656163 0 0 Z " fill="#BC8A52" transform="translate(153,139)"/>
<path d="M0 0 C12.21 0 24.42 0 37 0 C37 0.99 37 1.98 37 3 C32.3739666 3.19268792 27.74768184 3.37134034 23.12060547 3.53710938 C21.54721619 3.59544307 19.97396318 3.65758355 18.40087891 3.72363281 C16.13729671 3.81800832 13.87357465 3.89860024 11.609375 3.9765625 C10.90818542 4.00875885 10.20699585 4.0409552 9.48455811 4.0741272 C5.78425323 4.18715539 3.13851114 4.061847 0 2 C0 1.34 0 0.68 0 0 Z " fill="#D59655" transform="translate(120,84)"/>
<path d="M0 0 C2.93804996 -0.08086376 5.87388075 -0.1404283 8.8125 -0.1875 C9.64587891 -0.21263672 10.47925781 -0.23777344 11.33789062 -0.26367188 C12.54155273 -0.27817383 12.54155273 -0.27817383 13.76953125 -0.29296875 C14.87711792 -0.31653442 14.87711792 -0.31653442 16.00708008 -0.34057617 C18.55727485 0.0952344 19.44175849 0.97376263 21 3 C21 3.66 21 4.32 21 5 C25.37702633 3.77443263 29.69677317 2.46939453 34 1 C33.01158836 3.6956681 32.30627815 4.81623311 29.8125 6.3125 C26.21963902 7.19075491 23.59312221 6.7984716 20 6 C19.01 5.34 18.02 4.68 17 4 C14.97750421 3.54723252 14.97750421 3.54723252 12.76953125 3.3671875 C11.56586914 3.24150391 11.56586914 3.24150391 10.33789062 3.11328125 C9.50451172 3.03464844 8.67113281 2.95601563 7.8125 2.875 C6.96751953 2.78863281 6.12253906 2.70226562 5.25195312 2.61328125 C3.16871077 2.4014261 1.08443958 2.19973223 -1 2 C-0.67 1.34 -0.34 0.68 0 0 Z " fill="#FFFF97" transform="translate(111,69)"/>
<path d="M0 0 C0.33 0 0.66 0 1 0 C1.12375 0.94875 1.2475 1.8975 1.375 2.875 C1.71687177 6.08667191 1.71687177 6.08667191 4 8 C2.68 8.99 1.36 9.98 0 11 C0.33 13.31 0.66 15.62 1 18 C-4.75 21 -4.75 21 -7 21 C-6.25117431 16.60915843 -4.91962397 12.4601991 -3.5 8.25 C-3.27441406 7.56550781 -3.04882812 6.88101563 -2.81640625 6.17578125 C-1.12672061 1.12672061 -1.12672061 1.12672061 0 0 Z " fill="#BB5C16" transform="translate(128,126)"/>
<path d="M0 0 C3.1875 1.4375 3.1875 1.4375 6 3 C8.73572585 3.69907414 8.73572585 3.69907414 11 4 C11 4.33 11 4.66 11 5 C6.71042193 5.07149297 3.14470678 5.03617669 -1 4 C-5.30890574 3.69159161 -8.2738656 3.5159104 -12 6 C-15.13671875 6.1953125 -15.13671875 6.1953125 -18.6875 6.125 C-19.86699219 6.10695313 -21.04648438 6.08890625 -22.26171875 6.0703125 C-23.16535156 6.04710938 -24.06898437 6.02390625 -25 6 C-21.87214917 4.28783521 -18.82301329 3.32506137 -15.375 2.4375 C-4.17409638 -0.46032091 -4.17409638 -0.46032091 0 0 Z " fill="#EFD8BD" transform="translate(139,63)"/>
<path d="M0 0 C0.66 0 1.32 0 2 0 C3.16854757 4.16360346 3.14687633 8.20494801 3.125 12.5 C3.12886719 13.25925781 3.13273438 14.01851562 3.13671875 14.80078125 C3.13046768 18.37014456 2.96340936 21.56731602 2 25 C1.01 24.67 0.02 24.34 -1 24 C-1.16677223 15.95787245 -0.6466598 8.01396246 0 0 Z " fill="#B77D3A" transform="translate(130,108)"/>
<path d="M0 0 C11.88 0 23.76 0 36 0 C36.495 0.99 36.495 0.99 37 2 C32.53471515 2.19299856 28.06915169 2.37159922 23.6027832 2.53710938 C22.08472413 2.59536556 20.56680838 2.65749481 19.04907227 2.72363281 C16.86240754 2.81823778 14.6755991 2.89871866 12.48828125 2.9765625 C10.51661987 3.05511475 10.51661987 3.05511475 8.50512695 3.13525391 C5.13692563 3.00528361 2.99625274 2.47670657 0 1 C0 0.67 0 0.34 0 0 Z " fill="#AD7637" transform="translate(10,85)"/>
<path d="M0 0 C2.37160148 2.37160148 2.31983352 3.00621122 2.375 6.25 C2.21716899 12.40540928 -0.57361414 15.43776786 -4.625 19.875 C-9.1705495 22.73701265 -12.77186977 22.46495229 -18 22 C-18 21.34 -18 20.68 -18 20 C-17.443125 19.93683594 -16.88625 19.87367187 -16.3125 19.80859375 C-9.81188984 18.76542151 -5.1179473 16.24197883 -1 11 C0.04828137 7.29950948 0.08918005 3.83474226 0 0 Z " fill="#A06E36" transform="translate(214,28)"/>
<path d="M0 0 C0.33 0 0.66 0 1 0 C1.04947698 3.93265896 1.08575578 7.86519714 1.10986328 11.7980957 C1.12485495 13.79319618 1.15026731 15.78820946 1.17578125 17.78320312 C1.18222656 19.03681641 1.18867188 20.29042969 1.1953125 21.58203125 C1.20578613 22.73936768 1.21625977 23.8967041 1.22705078 25.08911133 C1 28 1 28 -1 31 C-2.87939453 31.34057617 -2.87939453 31.34057617 -5.1328125 31.29296875 C-5.93847656 31.28330078 -6.74414062 31.27363281 -7.57421875 31.26367188 C-8.41597656 31.23853516 -9.25773438 31.21339844 -10.125 31.1875 C-11.39923828 31.16719727 -11.39923828 31.16719727 -12.69921875 31.14648438 C-14.79974837 31.11108219 -16.89995293 31.05727401 -19 31 C-19 30.67 -19 30.34 -19 30 C-13.39 30 -7.78 30 -2 30 C-2 25.38 -2 20.76 -2 16 C-1.67 16 -1.34 16 -1 16 C-0.67 10.72 -0.34 5.44 0 0 Z " fill="#BC8642" transform="translate(197,193)"/>
<path d="M0 0 C7.66215466 1.77673151 13.39674894 5.49033142 19 11 C19 11.66 19 12.32 19 13 C16.03 12.01 13.06 11.02 10 10 C10 9.01 10 8.02 10 7 C6.7 6.01 3.4 5.02 0 4 C0 2.68 0 1.36 0 0 Z " fill="#DCA543" transform="translate(35,150)"/>
<path d="M0 0 C2.69334077 -0.48969832 4.43256194 -0.3464228 6.78515625 1.08984375 C11.19288374 4.61789739 13.13908614 7.71108692 15 13 C15.4125 13.7425 15.825 14.485 16.25 15.25 C17 17 17 17 16 20 C15.63648437 19.43152344 15.27296875 18.86304687 14.8984375 18.27734375 C10.52382419 11.55838638 5.78550708 5.56298758 0 0 Z " fill="#AB5B25" transform="translate(106,80)"/>
<path d="M0 0 C0.66 0 1.32 0 2 0 C2.06058594 0.62648437 2.12117187 1.25296875 2.18359375 1.8984375 C2.26738281 2.71570313 2.35117188 3.53296875 2.4375 4.375 C2.55931641 5.59316406 2.55931641 5.59316406 2.68359375 6.8359375 C2.89090114 9.04272805 2.89090114 9.04272805 4 11 C4 13.31 4 15.62 4 18 C-1.61 18 -7.22 18 -13 18 C-13 17.67 -13 17.34 -13 17 C-8.71 17 -4.42 17 0 17 C0 11.39 0 5.78 0 0 Z " fill="#9E501C" transform="translate(172,207)"/>
<path d="M0 0 C0.33 0 0.66 0 1 0 C1.24911914 8.58077055 0.69882188 16.58173087 -1 25 C-3 23 -3 23 -3.22705078 20.75341797 C-3.21657715 19.84221191 -3.20610352 18.93100586 -3.1953125 17.9921875 C-3.18886719 17.00605469 -3.18242187 16.01992187 -3.17578125 15.00390625 C-3.15902344 13.97136719 -3.14226562 12.93882812 -3.125 11.875 C-3.11597656 10.83472656 -3.10695312 9.79445312 -3.09765625 8.72265625 C-3.07403747 6.14820908 -3.04110149 3.57421788 -3 1 C-2.34 1.66 -1.68 2.32 -1 3 C-0.67 2.01 -0.34 1.02 0 0 Z " fill="#BB7328" transform="translate(197,143)"/>
<path d="M0 0 C0 0.33 0 0.66 0 1 C-12.3085142 2.30586945 -24.65451913 3.13007856 -37 4 C-37 3.34 -37 2.68 -37 2 C-25.62136793 -1.79287736 -11.82843873 -0.1026226 0 0 Z " fill="#FFD763" transform="translate(196,68)"/>
<path d="M0 0 C-5.97332123 3.4753869 -10.11509775 4.57374185 -17 4 C-17 5.65 -17 7.3 -17 9 C-19.96175123 8.38722388 -21.38058783 7.74627478 -24 6 C-24 5.34 -24 4.68 -24 4 C-22.1128125 3.5978125 -22.1128125 3.5978125 -20.1875 3.1875 C-15.54778483 2.17439764 -11.02239286 0.87117589 -6.48046875 -0.51171875 C-3.90072781 -1.01954177 -2.45642178 -0.85316281 0 0 Z " fill="#8A370B" transform="translate(94,171)"/>
<path d="M0 0 C0.66 0 1.32 0 2 0 C2.18451025 19.00455581 2.18451025 19.00455581 1 27 C0.67 27 0.34 27 0 27 C-1.33583899 22.15758367 -2.25328119 18.06562383 -2 13 C-1.34 13 -0.68 13 0 13 C0 8.71 0 4.42 0 0 Z " fill="#D39239" transform="translate(196,125)"/>
<path d="M0 0 C4.3573226 1.47130373 7.71934134 3.83080615 11.3125 6.625 C11.86228516 7.04523438 12.41207031 7.46546875 12.97851562 7.8984375 C14.32292168 8.92720039 15.66201413 9.9629009 17 11 C16.67 11.99 16.34 12.98 16 14 C12.05209695 11.86155251 8.2857853 9.60351879 4.625 7 C3.95726563 6.525625 3.28953125 6.05125 2.6015625 5.5625 C0.74587655 3.75207468 0.38152751 2.52898234 0 0 Z " fill="#DA9A3A" transform="translate(107,200)"/>
<path d="M0 0 C3.84178129 0.6372623 6.43812645 2.44716293 9.625 4.625 C10.67429687 5.33914062 11.72359375 6.05328125 12.8046875 6.7890625 C17.21598613 9.84137916 21.62177614 12.90037249 26 16 C25.01 16.33 24.02 16.66 23 17 C20.2578125 15.453125 20.2578125 15.453125 17.125 13.25 C12.70941723 10.16554452 12.70941723 10.16554452 8.1171875 7.359375 C7.41851562 6.91078125 6.71984375 6.4621875 6 6 C6 5.34 6 4.68 6 4 C3.69 3.34 1.38 2.68 -1 2 C-0.67 1.34 -0.34 0.68 0 0 Z " fill="#FFFFFF" transform="translate(58,214)"/>
<path d="M0 0 C0.33 0 0.66 0 1 0 C1.33 9.9 1.66 19.8 2 30 C2.33 30 2.66 30 3 30 C3.125 37.75 3.125 37.75 2 40 C1.34 40 0.68 40 0 40 C0 26.8 0 13.6 0 0 Z " fill="#FFE29C" transform="translate(193,92)"/>
<path d="M0 0 C2.5 0.5 2.5 0.5 4 1 C4 1.66 4 2.32 4 3 C-0.68531765 5.1418595 -3.90242197 5.74580552 -8.8125 4 C-9.534375 3.67 -10.25625 3.34 -11 3 C-8.2973371 -1.05399435 -4.37319503 -0.38716415 0 0 Z " fill="#FEFDF4" transform="translate(138,66)"/>
<path d="M0 0 C8.25 0 16.5 0 25 0 C22 3 22 3 19.96289062 3.28051758 C19.20169922 3.23564209 18.44050781 3.1907666 17.65625 3.14453125 C16.82222656 3.09876953 15.98820313 3.05300781 15.12890625 3.00585938 C13.82759766 2.91014648 13.82759766 2.91014648 12.5 2.8125 C11.63246094 2.76802734 10.76492187 2.72355469 9.87109375 2.67773438 C3.40993137 2.27328758 3.40993137 2.27328758 0 0 Z " fill="#E5D0B6" transform="translate(220,85)"/>
<path d="M0 0 C-0.47645208 4.28806873 -1.65902484 6.26647487 -5 9 C-5.66 9 -6.32 9 -7 9 C-7 8.34 -7 7.68 -7 7 C-7.66 7 -8.32 7 -9 7 C-8.34 5.02 -7.68 3.04 -7 1 C-2.25 0 -2.25 0 0 0 Z " fill="#B87B34" transform="translate(127,145)"/>
<path d="M0 0 C2.65354511 0.97296654 3.79877896 1.65792423 5.25 4.125 C6.22875273 7.87688545 6.13130728 11.1264351 6 15 C5.67 15 5.34 15 5 15 C4.67 12.69 4.34 10.38 4 8 C4 10.31 4 12.62 4 15 C2.35 15.66 0.7 16.32 -1 17 C-0.67 16.505 -0.34 16.01 0 15.5 C1.97547868 10.5613033 1.26708251 5.06833002 0 0 Z " fill="#D0944D" transform="translate(211,22)"/>
<path d="M0 0 C3.33331439 -0.02937438 6.66659483 -0.04692334 10 -0.0625 C10.93457031 -0.07087891 11.86914062 -0.07925781 12.83203125 -0.08789062 C18.32274401 -0.10708892 23.56866481 0.1865807 29 1 C29 1.33 29 1.66 29 2 C24.54172074 2.0578304 20.0835372 2.09353855 15.625 2.125 C14.35398437 2.14175781 13.08296875 2.15851563 11.7734375 2.17578125 C10.56171875 2.18222656 9.35 2.18867188 8.1015625 2.1953125 C6.98088379 2.20578613 5.86020508 2.21625977 4.70556641 2.22705078 C2 2 2 2 0 0 Z " fill="#FFFFFF" transform="translate(20,247)"/>
<path d="M0 0 C1.32 0.33 2.64 0.66 4 1 C4 1.66 4 2.32 4 3 C4.886875 3.226875 5.77375 3.45375 6.6875 3.6875 C10.43380532 5.17188513 12.33729434 7.02403485 15 10 C14.34 10 13.68 10 13 10 C12.67 10.99 12.34 11.98 12 13 C11.67 12.01 11.34 11.02 11 10 C10.34 10 9.68 10 9 10 C7.31126121 8.35570171 5.64694485 6.68615782 4 5 C3.236875 4.443125 2.47375 3.88625 1.6875 3.3125 C1.130625 2.879375 0.57375 2.44625 0 2 C0 1.34 0 0.68 0 0 Z " fill="#823C14" transform="translate(104,218)"/>
<path d="M0 0 C1.4552777 2.9105554 0.63516661 4.95849052 0.0625 8.125 C-0.13214844 9.22070312 -0.32679688 10.31640625 -0.52734375 11.4453125 C-0.68332031 12.28835937 -0.83929688 13.13140625 -1 14 C-1.99 14 -2.98 14 -4 14 C-4.63019694 4.82713348 -4.63019694 4.82713348 -2 1.375 C-1.34 0.92125 -0.68 0.4675 0 0 Z " fill="#D18B3A" transform="translate(185,24)"/>
<path d="M0 0 C3.78269949 1.3742901 6.93238005 3.1003444 10.25 5.375 C11.12140625 5.96023437 11.9928125 6.54546875 12.890625 7.1484375 C15.1440392 9.12643441 15.66488334 10.07417375 16 13 C14.68 12.34 13.36 11.68 12 11 C12 10.34 12 9.68 12 9 C10.8553125 8.566875 10.8553125 8.566875 9.6875 8.125 C7 7 7 7 4 5 C4 4.34 4 3.68 4 3 C2.68 3 1.36 3 0 3 C0 2.01 0 1.02 0 0 Z " fill="#E2A840" transform="translate(92,190)"/>
<path d="M0 0 C0.56203125 0.32742187 1.1240625 0.65484375 1.703125 0.9921875 C4.26859964 2.11785494 5.96842277 2.2068111 8.75 2.125 C9.94882812 2.09792969 9.94882812 2.09792969 11.171875 2.0703125 C12.07679687 2.03550781 12.07679687 2.03550781 13 2 C13 2.66 13 3.32 13 4 C9.91566208 4.9016858 7.14658179 5.13468049 3.9375 5.125 C2.65166016 5.12886719 2.65166016 5.12886719 1.33984375 5.1328125 C-1 5 -1 5 -4 4 C-4 3.34 -4 2.68 -4 2 C-2.68 2 -1.36 2 0 2 C0 1.34 0 0.68 0 0 Z " fill="#F1BD5C" transform="translate(54,161)"/>
<path d="M0 0 C4.32417513 2.99819298 6.20247632 5.76996559 8.3125 10.5625 C8.82425781 11.69816406 9.33601562 12.83382812 9.86328125 14.00390625 C11 17 11 17 11 20 C10.34 20 9.68 20 9 20 C7.68 16.7 6.36 13.4 5 10 C4.67 10 4.34 10 4 10 C3.566875 8.63875 3.566875 8.63875 3.125 7.25 C2.23468224 4.67797092 1.28505587 2.38653234 0 0 Z " fill="#D1AE87" transform="translate(120,88)"/>
<path d="M0 0 C-1 3 -1 3 -3 4 C-3.79767116 6.03362319 -4.40274934 8.09361223 -5.0234375 10.1875 C-6 12 -6 12 -8.1015625 12.75 C-9.04128906 12.87375 -9.04128906 12.87375 -10 13 C-9.46760392 8.47463334 -7.72876727 5.61160373 -5 2 C-2 0 -2 0 0 0 Z " fill="#8E4A1B" transform="translate(252,71)"/>
<path d="M0 0 C0 1.65 0 3.3 0 5 C-1.670625 5.4021875 -1.670625 5.4021875 -3.375 5.8125 C-7.21840951 6.65809019 -7.21840951 6.65809019 -9 10 C-10.32 9.67 -11.64 9.34 -13 9 C-11.40423801 7.49106184 -9.79810089 5.99308924 -8.1875 4.5 C-7.29417969 3.6646875 -6.40085938 2.829375 -5.48046875 1.96875 C-3 0 -3 0 0 0 Z " fill="#B86019" transform="translate(156,139)"/>
<path d="M0 0 C4.08745705 0.51093213 5.50888616 2.37076039 8 5.5625 C9.76637442 8.05309672 9.76637442 8.05309672 12 9 C12 9.66 12 10.32 12 11 C8.65291949 9.45158425 5.75332488 7.50894136 2.75 5.375 C1.85796875 4.74335938 0.9659375 4.11171875 0.046875 3.4609375 C-0.62859375 2.97882813 -1.3040625 2.49671875 -2 2 C-1.34 1.34 -0.68 0.68 0 0 Z " fill="#A85816" transform="translate(79,180)"/>
<path d="M0 0 C-3.13382029 0.93285813 -5.86385703 1.07606164 -9.125 1 C-14.47958347 0.94234634 -19.68830892 1.35476204 -25 2 C-17.29400139 -3.13733241 -8.59333275 -2.16079934 0 0 Z " fill="#FCD37D" transform="translate(98,70)"/>
<path d="M0 0 C7.48291572 6.15034169 7.48291572 6.15034169 10 10 C5.50985376 8.50328459 1.52151236 6.16631659 -2 3 C-2 2.34 -2 1.68 -2 1 C-1.34 0.67 -0.68 0.34 0 0 Z " fill="#6F2D0E" transform="translate(20,160)"/>
<path d="M0 0 C-0.33 0.99 -0.66 1.98 -1 3 C-1.33 2.34 -1.66 1.68 -2 1 C-3.98 2.32 -5.96 3.64 -8 5 C-8 4.34 -8 3.68 -8 3 C-8.66 3 -9.32 3 -10 3 C-9.67 2.01 -9.34 1.02 -9 0 C-5.93109813 -1.53445094 -3.29905734 -0.54984289 0 0 Z " fill="#A66E3E" transform="translate(65,71)"/>
<path d="M0 0 C0.99 0.33 1.98 0.66 3 1 C1.74809374 5.48599743 0.20614467 8.59347128 -3 12 C-3.66 12 -4.32 12 -5 12 C-4.58225916 9.57710315 -4.30387062 8.29120935 -2.5 6.5625 C-0.53426922 4.51486377 -0.37331439 2.76252651 0 0 Z " fill="#B4854C" transform="translate(127,215)"/>
<path d="M0 0 C1.98 0.495 1.98 0.495 4 1 C4 1.66 4 2.32 4 3 C4.5775 3.268125 5.155 3.53625 5.75 3.8125 C8.0325868 5.01719859 9.9737942 6.40798115 12 8 C7.8029908 8.35281338 5.93477927 7.64185432 2.6875 5 C1.99011719 4.443125 1.29273438 3.88625 0.57421875 3.3125 C0.05472656 2.879375 -0.46476562 2.44625 -1 2 C-0.67 1.34 -0.34 0.68 0 0 Z " fill="#FFFFFF" transform="translate(50,153)"/>
<path d="M0 0 C3.38060901 3.11371882 5.70920036 5.54087397 7 10 C7 10.99 7 11.98 7 13 C6.34 13.66 5.68 14.32 5 15 C4.80664062 14.38511719 4.61328125 13.77023438 4.4140625 13.13671875 C4.15367188 12.32847656 3.89328125 11.52023438 3.625 10.6875 C3.36976562 9.88699219 3.11453125 9.08648437 2.8515625 8.26171875 C2.01168189 5.77275472 2.01168189 5.77275472 0 3 C0 2.01 0 1.02 0 0 Z " fill="#BC7F3D" transform="translate(118,87)"/>
<path d="M0 0 C5.78898419 -0.20674944 10.42932723 0.40837921 16 2 C16 2.33 16 2.66 16 3 C14.10424749 3.02721176 12.20838021 3.04649136 10.3125 3.0625 C8.72888672 3.07990234 8.72888672 3.07990234 7.11328125 3.09765625 C4.27589738 3.00865425 1.7561081 2.64939838 -1 2 C-0.67 1.34 -0.34 0.68 0 0 Z " fill="#FEF47B" transform="translate(111,69)"/>
<path d="M0 0 C-5.22771463 3.04157942 -8.92671312 4.50610724 -15 4 C-15 3.34 -15 2.68 -15 2 C-13.25364835 1.46706165 -11.50272348 0.94909337 -9.75 0.4375 C-8.77546875 0.14746094 -7.8009375 -0.14257812 -6.796875 -0.44140625 C-4.03756068 -0.99249836 -2.6087176 -0.93789609 0 0 Z " fill="#B9621D" transform="translate(94,171)"/>
<path d="M0 0 C7.81636537 1.91722169 7.81636537 1.91722169 10 5 C10 5.66 10 6.32 10 7 C8.51515588 6.60404157 7.0371169 6.18249294 5.5625 5.75 C4.73878906 5.51796875 3.91507813 5.2859375 3.06640625 5.046875 C1 4 1 4 0.21484375 1.890625 C0.14394531 1.26671875 0.07304688 0.6428125 0 0 Z " fill="#D49E4C" transform="translate(44,156)"/>
<path d="M0 0 C1.48200313 2.71899768 2.05667558 4.40381353 2.5 7.5625 C2.76535587 11.11295563 2.76535587 11.11295563 5 14 C2.53199953 12.84826645 0.95216435 11.95216435 -1 10 C-0.9765625 7.6171875 -0.9765625 7.6171875 -0.625 4.875 C-0.51414063 3.96492188 -0.40328125 3.05484375 -0.2890625 2.1171875 C-0.19367187 1.41851562 -0.09828125 0.71984375 0 0 Z " fill="#FAEAD5" transform="translate(2,70)"/>
<path d="M0 0 C-0.99 1.485 -0.99 1.485 -2 3 C-5.0390625 3.29296875 -5.0390625 3.29296875 -8.625 3.1875 C-9.81351562 3.16042969 -11.00203125 3.13335937 -12.2265625 3.10546875 C-13.59941406 3.05326172 -13.59941406 3.05326172 -15 3 C-12.16163087 1.46417013 -9.52324478 0.51269491 -6.375 -0.1875 C-5.59898438 -0.36667969 -4.82296875 -0.54585938 -4.0234375 -0.73046875 C-2 -1 -2 -1 0 0 Z " fill="#F8ECC5" transform="translate(129,66)"/>
<path d="M0 0 C0.66 0.33 1.32 0.66 2 1 C0.99806563 4.79303725 0.18975773 7.71536341 -2 11 C-2.66 11 -3.32 11 -4 11 C-3.71758359 9.53984709 -3.42373386 8.08190207 -3.125 6.625 C-2.96257812 5.81289062 -2.80015625 5.00078125 -2.6328125 4.1640625 C-2 2 -2 2 0 0 Z " fill="#BFA991" transform="translate(250,73)"/>
<path d="M0 0 C0.33 0 0.66 0 1 0 C1.99250545 5.70690634 2.10477512 11.21408489 2 17 C1.67 17 1.34 17 1 17 C0.67 15.35 0.34 13.7 0 12 C-0.33 12 -0.66 12 -1 12 C-1.08159574 7.83861737 -0.98248524 4.0527516 0 0 Z " fill="#B4762D" transform="translate(196,176)"/>
<path d="M0 0 C0.66 0 1.32 0 2 0 C2 0.99 2 1.98 2 3 C2.78375 3.268125 3.5675 3.53625 4.375 3.8125 C7 5 7 5 9 8 C8.01 8 7.02 8 6 8 C5.34 7.34 4.68 6.68 4 6 C1.41645782 5.83312552 1.41645782 5.83312552 -1 6 C-0.67 4.02 -0.34 2.04 0 0 Z " fill="#BC8F65" transform="translate(77,175)"/>
<path d="M0 0 C0.66 1.32 1.32 2.64 2 4 C-3.75 7 -3.75 7 -6 7 C-5.67 5.35 -5.34 3.7 -5 2 C-4.34 2.33 -3.68 2.66 -3 3 C-2.01 2.01 -1.02 1.02 0 0 Z " fill="#AE6521" transform="translate(127,140)"/>
<path d="M0 0 C0.66 0.33 1.32 0.66 2 1 C2.25 7.625 2.25 7.625 0 11 C-0.66 10.67 -1.32 10.34 -2 10 C-1.34 6.7 -0.68 3.4 0 0 Z " fill="#FFFFFF" transform="translate(10,129)"/>
<path d="M0 0 C0.99 0.33 1.98 0.66 3 1 C2.67 3.31 2.34 5.62 2 8 C0.68 7.34 -0.64 6.68 -2 6 C-2 4.68 -2 3.36 -2 2 C-1.34 2 -0.68 2 0 2 C0 1.34 0 0.68 0 0 Z " fill="#AE6B2A" transform="translate(196,85)"/>
<path d="M0 0 C-0.33 0.99 -0.66 1.98 -1 3 C-4.3 3 -7.6 3 -11 3 C-11 2.34 -11 1.68 -11 1 C-9.5437328 0.63743142 -8.08488815 0.28520207 -6.625 -0.0625 C-5.40683594 -0.35833984 -5.40683594 -0.35833984 -4.1640625 -0.66015625 C-2 -1 -2 -1 0 0 Z " fill="#B0845A" transform="translate(207,47)"/>
<path d="M0 0 C0.99 1.32 1.98 2.64 3 4 C1.7260411 6.03833424 0.38938077 8.03852126 -1 10 C-1.66 10 -2.32 10 -3 10 C-2.39009109 6.44219804 -1.4216319 3.3171411 0 0 Z " fill="#A06024" transform="translate(114,228)"/>
<path d="M0 0 C0.66 0 1.32 0 2 0 C2 1.98 2 3.96 2 6 C1.34 6 0.68 6 0 6 C-0.66 7.32 -1.32 8.64 -2 10 C-1.85950482 8.52031676 -1.71245174 7.04125484 -1.5625 5.5625 C-1.48128906 4.73878906 -1.40007812 3.91507813 -1.31640625 3.06640625 C-1 1 -1 1 0 0 Z " fill="#803810" transform="translate(125,135)"/>
<path d="M0 0 C1.6875 1.4375 1.6875 1.4375 3 3 C3 3.66 3 4.32 3 5 C0.03 4.01 -2.94 3.02 -6 2 C-6 1.34 -6 0.68 -6 0 C-3 -1 -3 -1 0 0 Z " fill="#713C1B" transform="translate(75,80)"/>
<path d="M0 0 C0.99 0.33 1.98 0.66 3 1 C1.1875 4 1.1875 4 -1 7 C-1.99 7 -2.98 7 -4 7 C-2.79618552 4.50638429 -1.54571278 2.31856917 0 0 Z " fill="#B48043" transform="translate(117,231)"/>
<path d="M0 0 C-2.26568725 2.26568725 -3.43233985 2.55280451 -6.5 3.25 C-7.2940625 3.44078125 -8.088125 3.6315625 -8.90625 3.828125 C-9.5971875 3.88484375 -10.288125 3.9415625 -11 4 C-11.66 3.34 -12.32 2.68 -13 2 C-8.49646738 0.24252386 -4.82360189 -0.19294408 0 0 Z " fill="#FFFFFF" transform="translate(186,227)"/>
<path d="M0 0 C0.721875 0.268125 1.44375 0.53625 2.1875 0.8125 C2.1875 1.4725 2.1875 2.1325 2.1875 2.8125 C-1.1125 3.4725 -4.4125 4.1325 -7.8125 4.8125 C-3.50480769 -0.23365385 -3.50480769 -0.23365385 0 0 Z " fill="#CE985B" transform="translate(95.8125,169.1875)"/>
<path d="M0 0 C0 3.1265633 -0.5707507 4.32015757 -2 7 C-2 7.33 -2 7.66 -2 8 C-3.98 8 -5.96 8 -8 8 C-8 7.34 -8 6.68 -8 6 C-6.02678947 4.6273318 -4.02456848 3.29572383 -2 2 C-1.34 1.34 -0.68 0.68 0 0 Z " fill="#D59748" transform="translate(142,148)"/>
<path d="M0 0 C0.33 0 0.66 0 1 0 C1.125 7.75 1.125 7.75 0 10 C-0.66 10 -1.32 10 -2 10 C-2.1953125 3.9453125 -2.1953125 3.9453125 -2 2 C-1.34 1.34 -0.68 0.68 0 0 Z " fill="#FDE67F" transform="translate(195,122)"/>
<path d="M0 0 C0.33 0 0.66 0 1 0 C0.67 5.28 0.34 10.56 0 16 C-0.99 16.33 -1.98 16.66 -3 17 C-2.01 11.39 -1.02 5.78 0 0 Z " fill="#FAF3E7" transform="translate(154,101)"/>
<path d="M0 0 C0.66 0 1.32 0 2 0 C2 2.97 2 5.94 2 9 C1.01 9.495 1.01 9.495 0 10 C-1.125 3.375 -1.125 3.375 0 0 Z " fill="#FFFFFF" transform="translate(249,99)"/>
<path d="M0 0 C5.28 0.33 10.56 0.66 16 1 C11.70639731 3.14680135 10.35222258 3.12524159 5.75 2.625 C4.67234375 2.51414063 3.5946875 2.40328125 2.484375 2.2890625 C1.25460938 2.14597656 1.25460938 2.14597656 0 2 C0 1.34 0 0.68 0 0 Z " fill="#FFFFFF" transform="translate(156,228)"/>
<path d="M0 0 C1.42944945 2.35438733 2.08661261 3.48032433 1.625 6.25 C1.41875 6.8275 1.2125 7.405 1 8 C0.01 7.67 -0.98 7.34 -2 7 C-2 5.02 -2 3.04 -2 1 C-1.34 0.67 -0.68 0.34 0 0 Z " fill="#A57035" transform="translate(131,125)"/>
<path d="M0 0 C4.24822374 0.47202486 6.19989709 2.96655518 9 6 C8.01 6.495 8.01 6.495 7 7 C6.67 7.66 6.34 8.32 6 9 C3.76362469 6.76362469 3.16152029 4.90380073 2 2 C1.34 1.34 0.68 0.68 0 0 Z " fill="#F9D3A6" transform="translate(98,71)"/>
<path d="M0 0 C1.32 0.33 2.64 0.66 4 1 C4 2.98 4 4.96 4 7 C3.67 6.01 3.34 5.02 3 4 C1.35 4.66 -0.3 5.32 -2 6 C-1.34 4.02 -0.68 2.04 0 0 Z " fill="#BC8144" transform="translate(249,67)"/>
<path d="M0 0 C4.43090471 1.20842856 6.98112756 2.51668565 10 6 C5.16743695 5.58578031 3.17320782 3.53586014 0 0 Z " fill="#C08E4F" transform="translate(111,201)"/>
<path d="M0 0 C0.66 1.32 1.32 2.64 2 4 C2.33 4.33 2.66 4.66 3 5 C3.04063832 6.66617115 3.042721 8.33388095 3 10 C2.01 10 1.02 10 0 10 C0 6.7 0 3.4 0 0 Z " fill="#D09E64" transform="translate(181,28)"/>
<path d="M0 0 C3.46941546 0.45822468 6.67395049 0.89131683 10 2 C9.67 2.66 9.34 3.32 9 4 C5.625 3.6875 5.625 3.6875 2 3 C1.34 2.01 0.68 1.02 0 0 Z " fill="#FFFFFF" transform="translate(57,236)"/>
<path d="M0 0 C0.66 0 1.32 0 2 0 C6 6.75 6 6.75 6 9 C4.125 8.4375 4.125 8.4375 2 7 C0.75 3.375 0.75 3.375 0 0 Z " fill="#FFFFFF" transform="translate(27,227)"/>
<path d="M0 0 C4.51478398 0.53115106 7.34666857 2.36620292 11 5 C10.34 5.66 9.68 6.32 9 7 C7.4972763 6.02501855 5.99788037 5.04490611 4.5 4.0625 C3.6646875 3.51722656 2.829375 2.97195312 1.96875 2.41015625 C1.3190625 1.94480469 0.669375 1.47945312 0 1 C0 0.67 0 0.34 0 0 Z " fill="#C0873B" transform="translate(101,195)"/>
<path d="M0 0 C0.99 0 1.98 0 3 0 C3 1.65 3 3.3 3 5 C1.35 5 -0.3 5 -2 5 C-1.34 3.35 -0.68 1.7 0 0 Z " fill="#8D4819" transform="translate(153,139)"/>
<path d="M0 0 C2.74148672 0.37047118 4.58593199 0.68587944 6.8125 2.375 C8 4 8 4 8 7 C7.01 6.67 6.02 6.34 5 6 C5 5.34 5 4.68 5 4 C3.37373596 2.61767557 1.7074998 1.28062485 0 0 Z " fill="#B17A32" transform="translate(118,207)"/>
<path d="M0 0 C0 3.52032428 -0.70351351 4.4385343 -3 7 C-3.66 7 -4.32 7 -5 7 C-4.60196439 4.11424181 -4.20990931 3.17810487 -1.9375 1.25 C-1.298125 0.8375 -0.65875 0.425 0 0 Z " fill="#461F10" transform="translate(52,78)"/>
<path d="M0 0 C-1.15173355 2.46800047 -2.04783565 4.04783565 -4 6 C-4.99 5.34 -5.98 4.68 -7 4 C-3.375 0 -3.375 0 0 0 Z " fill="#7B3616" transform="translate(57,74)"/>
<path d="M0 0 C2.88437779 1.29299694 4.87219421 2.65941363 7 5 C4.625 5.125 4.625 5.125 2 5 C1.34 4.34 0.68 3.68 0 3 C0 2.01 0 1.02 0 0 Z " fill="#DBB47E" transform="translate(41,152)"/>
<path d="M0 0 C0.66 0 1.32 0 2 0 C1.6875 2.375 1.6875 2.375 1 5 C0.01 5.66 -0.98 6.32 -2 7 C-1.125 1.125 -1.125 1.125 0 0 Z " fill="#C19C72" transform="translate(125,145)"/>
<path d="M0 0 C2.64 1.98 5.28 3.96 8 6 C7.01 6.33 6.02 6.66 5 7 C3.29115995 5.37660195 1.62553283 3.70680947 0 2 C0 1.34 0 0.68 0 0 Z " fill="#B47F4C" transform="translate(110,80)"/>
<path d="M0 0 C1.65 0 3.3 0 5 0 C4.34 1.98 3.68 3.96 3 6 C2.34 5.67 1.68 5.34 1 5 C0.375 2.4375 0.375 2.4375 0 0 Z " fill="#FFFFFF" transform="translate(14,90)"/>
<path d="M0 0 C0.33 0 0.66 0 1 0 C1 2.31 1 4.62 1 7 C0.01 6.67 -0.98 6.34 -2 6 C-1.34 4.02 -0.68 2.04 0 0 Z " fill="#FFFFFF" transform="translate(133,213)"/>
<path d="M0 0 C0.33 0 0.66 0 1 0 C1 2.97 1 5.94 1 9 C0.34 9 -0.32 9 -1 9 C-0.67 6.03 -0.34 3.06 0 0 Z " fill="#FFFFFF" transform="translate(152,165)"/>
<path d="M0 0 C0.33 0.66 0.66 1.32 1 2 C0.67 2.99 0.34 3.98 0 5 C-1.65 5.33 -3.3 5.66 -5 6 C-3.35 4.02 -1.7 2.04 0 0 Z " fill="#FFFFFF" transform="translate(122,157)"/>
<path d="M0 0 C0 1.65 0 3.3 0 5 C-1.32 4.34 -2.64 3.68 -4 3 C-1.125 0 -1.125 0 0 0 Z " fill="#FFFFFF" transform="translate(256,88)"/>
<path d="M0 0 C1.42944945 2.35438733 2.08661261 3.48032433 1.625 6.25 C1.41875 6.8275 1.2125 7.405 1 8 C0.67 8 0.34 8 0 8 C0 5.36 0 2.72 0 0 Z " fill="#FFFFFF" transform="translate(201,176)"/>
<path d="M0 0 C2.5 1.3125 2.5 1.3125 5 3 C5 3.99 5 4.98 5 6 C3.2925002 4.71937515 1.62626404 3.38232443 0 2 C0 1.34 0 0.68 0 0 Z " fill="#FFFFFF" transform="translate(64,110)"/>
<path d="M0 0 C2 2 2 2 2.125 5.125 C2.08375 6.07375 2.0425 7.0225 2 8 C1.67 8 1.34 8 1 8 C0.67 5.36 0.34 2.72 0 0 Z " fill="#FFFFFF" transform="translate(228,126)"/>
<path d="M0 0 C2.1385485 2.1385485 2.42655063 3.13275314 3 6 C2.34 6 1.68 6 1 6 C0.67 4.02 0.34 2.04 0 0 Z " fill="#FFFFFF" transform="translate(237,110)"/>
<path d="M0 0 C1.65 1.65 3.3 3.3 5 5 C3.0625 4.1875 3.0625 4.1875 1 3 C0.67 2.01 0.34 1.02 0 0 Z " fill="#FFFFFF" transform="translate(76,110)"/>
<path d="M0 0 C0.33 0 0.66 0 1 0 C1 2.64 1 5.28 1 8 C0.67 8 0.34 8 0 8 C0 5.36 0 2.72 0 0 Z " fill="#FFFFFF" transform="translate(220,238)"/>
<path d="M0 0 C0.33 0 0.66 0 1 0 C1 1.98 1 3.96 1 6 C-0.0625 4.125 -0.0625 4.125 -1 2 C-0.67 1.34 -0.34 0.68 0 0 Z " fill="#FFFFFF" transform="translate(225,178)"/>
<path d="M0 0 C0.33 0 0.66 0 1 0 C1 2.31 1 4.62 1 7 C0.67 7 0.34 7 0 7 C0 4.69 0 2.38 0 0 Z " fill="#FFFFFF" transform="translate(209,242)"/>
<path d="M0 0 C0.66 0 1.32 0 2 0 C2 1.98 2 3.96 2 6 C1.67 6 1.34 6 1 6 C0.67 4.02 0.34 2.04 0 0 Z " fill="#FFFFFF" transform="translate(220,198)"/>
<path d="M0 0 C0.66 0.66 1.32 1.32 2 2 C1.67 2.99 1.34 3.98 1 5 C0.67 5 0.34 5 0 5 C0 3.35 0 1.7 0 0 Z " fill="#FFFFFF" transform="translate(127,168)"/>
<path d="M0 0 C0.66 0 1.32 0 2 0 C2.33 1.32 2.66 2.64 3 4 C2.01 3.34 1.02 2.68 0 2 C0 1.34 0 0.68 0 0 Z " fill="#FFFFFF" transform="translate(63,137)"/>
<path d="M0 0 C0.66 0 1.32 0 2 0 C2.33 1.32 2.66 2.64 3 4 C2.01 3.34 1.02 2.68 0 2 C0 1.34 0 0.68 0 0 Z " fill="#FFFFFF" transform="translate(34,121)"/>
<path d="M0 0 C1.98 0.99 1.98 0.99 4 2 C3.67 2.66 3.34 3.32 3 4 C2.01 2.68 1.02 1.36 0 0 Z " fill="#FFFFFF" transform="translate(70,116)"/>
<path d="M0 0 C0.33 0.66 0.66 1.32 1 2 C0.67 2.66 0.34 3.32 0 4 C-0.66 4 -1.32 4 -2 4 C-1.34 2.68 -0.68 1.36 0 0 Z " fill="#FFFFFF" transform="translate(214,46)"/>
<path d="M0 0 C0.33 0 0.66 0 1 0 C1 1.98 1 3.96 1 6 C0.67 6 0.34 6 0 6 C0 4.02 0 2.04 0 0 Z " fill="#FFFFFF" transform="translate(201,189)"/>
<path d="M0 0 C0.66 0.33 1.32 0.66 2 1 C1.67 1.66 1.34 2.32 1 3 C0.34 3 -0.32 3 -1 3 C-0.67 2.01 -0.34 1.02 0 0 Z " fill="#FFFFFF" transform="translate(21,123)"/>
<path d="M0 0 C0.66 1.32 1.32 2.64 2 4 C1.01 4.495 1.01 4.495 0 5 C0 3.35 0 1.7 0 0 Z " fill="#FFFFFF" transform="translate(202,95)"/>
<path d="M0 0 C1.98 0 3.96 0 6 0 C6 0.33 6 0.66 6 1 C4.02 1 2.04 1 0 1 C0 0.67 0 0.34 0 0 Z " fill="#FFFFFF" transform="translate(157,58)"/>
<path d="M0 0 C1.32 0.33 2.64 0.66 4 1 C2.68 1 1.36 1 0 1 C0 0.67 0 0.34 0 0 Z " fill="#FFFFFF" transform="translate(128,20)"/>
<path d="M0 0 C0.33 0 0.66 0 1 0 C1 1.65 1 3.3 1 5 C0.67 5 0.34 5 0 5 C0 3.35 0 1.7 0 0 Z " fill="#FFFFFF" transform="translate(243,170)"/>
<path d="M0 0 C0.33 0 0.66 0 1 0 C1 1.65 1 3.3 1 5 C0.67 5 0.34 5 0 5 C0 3.35 0 1.7 0 0 Z " fill="#FFFFFF" transform="translate(87,136)"/>
<path d="M0 0 C1.65 0 3.3 0 5 0 C5 0.33 5 0.66 5 1 C3.35 1 1.7 1 0 1 C0 0.67 0 0.34 0 0 Z " fill="#FFFFFF" transform="translate(148,90)"/>
<path d="M0 0 C1.65 0 3.3 0 5 0 C5 0.33 5 0.66 5 1 C3.35 1 1.7 1 0 1 C0 0.67 0 0.34 0 0 Z " fill="#FFFFFF" transform="translate(114,51)"/>
<path d="M0 0 C0.66 1.32 1.32 2.64 2 4 C1.34 3.67 0.68 3.34 0 3 C0 2.01 0 1.02 0 0 Z " fill="#FFFFFF" transform="translate(178,37)"/>
<path d="M0 0 C0 3 0 3 0 3 Z " fill="#FFFFFF" transform="translate(197,237)"/>
<path d="M0 0 C4 1 4 1 4 1 Z " fill="#FFFFFF" transform="translate(188,227)"/>
<path d="M0 0 C0.99 0.33 1.98 0.66 3 1 C2.01 1 1.02 1 0 1 C0 0.67 0 0.34 0 0 Z " fill="#FFFFFF" transform="translate(92,183)"/>
<path d="M0 0 C0.99 0.33 1.98 0.66 3 1 C2.01 1 1.02 1 0 1 C0 0.67 0 0.34 0 0 Z " fill="#FFFFFF" transform="translate(43,91)"/>
<path d="M0 0 C4 1 4 1 4 1 Z " fill="#FFFFFF" transform="translate(33,91)"/>
<path d="M0 0 C0.66 0 1.32 0 2 0 C2 0.66 2 1.32 2 2 C1.34 2 0.68 2 0 2 C0 1.34 0 0.68 0 0 Z " fill="#FFFFFF" transform="translate(127,90)"/>
<path d="M0 0 C0.99 0.33 1.98 0.66 3 1 C2.01 1 1.02 1 0 1 C0 0.67 0 0.34 0 0 Z " fill="#FFFFFF" transform="translate(104,70)"/>
<path d="M0 0 C0.99 0 1.98 0 3 0 C2.67 0.66 2.34 1.32 2 2 C1.34 1.34 0.68 0.68 0 0 Z " fill="#FFFFFF" transform="translate(63,67)"/>
<path d="M0 0 C4 1 4 1 4 1 Z " fill="#FFFFFF" transform="translate(41,66)"/>
<path d="M0 0 C0.99 0.495 0.99 0.495 2 1 C1.01 1.495 1.01 1.495 0 2 C0 1.34 0 0.68 0 0 Z " fill="#FFFFFF" transform="translate(137,224)"/>
<path d="" fill="#FFFFFF" transform="translate(0,0)"/>
<path d="M0 0 C0.66 0 1.32 0 2 0 C1.67 0.66 1.34 1.32 1 2 C0.67 1.34 0.34 0.68 0 0 Z " fill="#FFFFFF" transform="translate(137,159)"/>
<path d="M0 0 C0.66 0 1.32 0 2 0 C1.67 0.66 1.34 1.32 1 2 C0.67 1.34 0.34 0.68 0 0 Z " fill="#FFFFFF" transform="translate(145,155)"/>
<path d="M0 0 C0.99 0.495 0.99 0.495 2 1 C1.01 1.495 1.01 1.495 0 2 C0 1.34 0 0.68 0 0 Z " fill="#FFFFFF" transform="translate(127,151)"/>
<path d="M0 0 C0.66 0 1.32 0 2 0 C1.67 0.66 1.34 1.32 1 2 C0.67 1.34 0.34 0.68 0 0 Z " fill="#FFFFFF" transform="translate(66,141)"/>
<path d="M0 0 C0.66 0.66 1.32 1.32 2 2 C1.34 2 0.68 2 0 2 C0 1.34 0 0.68 0 0 Z " fill="#FFFFFF" transform="translate(36,101)"/>
<path d="M0 0 C3 1 3 1 3 1 Z " fill="#FFFFFF" transform="translate(121,63)"/>
<path d="M0 0 C2 1 2 1 2 1 Z " fill="#FFFFFF" transform="translate(148,247)"/>
<path d="M0 0 C2 1 2 1 2 1 Z " fill="#FFFFFF" transform="translate(164,246)"/>
<path d="M0 0 C2 1 2 1 2 1 Z " fill="#FFFFFF" transform="translate(166,245)"/>
<path d="" fill="#FFFFFF" transform="translate(0,0)"/>
<path d="" fill="#FFFFFF" transform="translate(0,0)"/>
<path d="" fill="#FFFFFF" transform="translate(0,0)"/>
<path d="" fill="#FFFFFF" transform="translate(0,0)"/>
<path d="M0 0 C2 1 2 1 2 1 Z " fill="#FFFFFF" transform="translate(29,207)"/>
<path d="M0 0 C2 1 2 1 2 1 Z " fill="#FFFFFF" transform="translate(26,205)"/>
<path d="M0 0 C2 1 2 1 2 1 Z " fill="#FFFFFF" transform="translate(24,204)"/>
<path d="M0 0 C2 1 2 1 2 1 Z " fill="#FFFFFF" transform="translate(22,203)"/>
<path d="M0 0 C2 1 2 1 2 1 Z " fill="#FFFFFF" transform="translate(17,186)"/>
<path d="" fill="#FFFFFF" transform="translate(0,0)"/>
<path d="M0 0 C2 1 2 1 2 1 Z " fill="#FFFFFF" transform="translate(14,184)"/>
<path d="" fill="#FFFFFF" transform="translate(0,0)"/>
<path d="M0 0 C2 1 2 1 2 1 Z " fill="#FFFFFF" transform="translate(28,145)"/>
<path d="" fill="#FFFFFF" transform="translate(0,0)"/>
<path d="" fill="#FFFFFF" transform="translate(0,0)"/>
<path d="" fill="#FFFFFF" transform="translate(0,0)"/>
<path d="M0 0 C2 1 2 1 2 1 Z " fill="#FFFFFF" transform="translate(227,96)"/>
<path d="" fill="#FFFFFF" transform="translate(0,0)"/>
<path d="M0 0 C2 1 2 1 2 1 Z " fill="#FFFFFF" transform="translate(215,89)"/>
<path d="M0 0 C2 1 2 1 2 1 Z " fill="#FFFFFF" transform="translate(65,75)"/>
<path d="" fill="#FFFFFF" transform="translate(0,0)"/>
<path d="" fill="#FFFFFF" transform="translate(0,0)"/>
<path d="" fill="#FFFFFF" transform="translate(0,0)"/>
<path d="" fill="#FFFFFF" transform="translate(0,0)"/>
<path d="" fill="#FFFFFF" transform="translate(0,0)"/>
<path d="" fill="#FFFFFF" transform="translate(0,0)"/>
<path d="" fill="#FFFFFF" transform="translate(0,0)"/>
<path d="" fill="#FFFFFF" transform="translate(0,0)"/>
<path d="" fill="#FFFFFF" transform="translate(0,0)"/>
<path d="" fill="#FFFFFF" transform="translate(0,0)"/>
<path d="" fill="#FFFFFF" transform="translate(0,0)"/>
<path d="" fill="#FFFFFF" transform="translate(0,0)"/>
<path d="" fill="#FFFFFF" transform="translate(0,0)"/>
<path d="" fill="#FFFFFF" transform="translate(0,0)"/>
<path d="" fill="#FFFFFF" transform="translate(0,0)"/>
<path d="" fill="#FFFFFF" transform="translate(0,0)"/>
<path d="" fill="#FFFFFF" transform="translate(0,0)"/>
<path d="" fill="#FFFFFF" transform="translate(0,0)"/>
<path d="" fill="#FFFFFF" transform="translate(0,0)"/>
<path d="" fill="#FFFFFF" transform="translate(0,0)"/>
<path d="" fill="#FFFFFF" transform="translate(0,0)"/>
<path d="" fill="#FFFFFF" transform="translate(0,0)"/>
<path d="" fill="#FFFFFF" transform="translate(0,0)"/>
<path d="" fill="#FFFFFF" transform="translate(0,0)"/>
<path d="" fill="#FFFFFF" transform="translate(0,0)"/>
<path d="" fill="#FFFFFF" transform="translate(0,0)"/>
<path d="" fill="#FFFFFF" transform="translate(0,0)"/>
<path d="" fill="#FFFFFF" transform="translate(0,0)"/>
<path d="" fill="#FFFFFF" transform="translate(0,0)"/>
<path d="" fill="#FFFFFF" transform="translate(0,0)"/>
<path d="" fill="#FFFFFF" transform="translate(0,0)"/>
<path d="" fill="#FFFFFF" transform="translate(0,0)"/>
<path d="" fill="#FFFFFF" transform="translate(0,0)"/>
<path d="" fill="#FFFFFF" transform="translate(0,0)"/>
<path d="" fill="#FFFFFF" transform="translate(0,0)"/>
<path d="" fill="#FFFFFF" transform="translate(0,0)"/>
<path d="" fill="#FFFFFF" transform="translate(0,0)"/>
<path d="" fill="#FFFFFF" transform="translate(0,0)"/>
<path d="" fill="#FFFFFF" transform="translate(0,0)"/>
<path d="" fill="#FFFFFF" transform="translate(0,0)"/>
<path d="" fill="#FFFFFF" transform="translate(0,0)"/>
<path d="" fill="#FFFFFF" transform="translate(0,0)"/>
<path d="" fill="#FFFFFF" transform="translate(0,0)"/>
<path d="" fill="#FFFFFF" transform="translate(0,0)"/>
<path d="" fill="#FFFFFF" transform="translate(0,0)"/>
<path d="" fill="#FFFFFF" transform="translate(0,0)"/>
<path d="" fill="#FFFFFF" transform="translate(0,0)"/>
<path d="" fill="#FFFFFF" transform="translate(0,0)"/>
<path d="" fill="#FFFFFF" transform="translate(0,0)"/>
<path d="" fill="#FFFFFF" transform="translate(0,0)"/>
<path d="" fill="#FFFFFF" transform="translate(0,0)"/>
<path d="" fill="#FFFFFF" transform="translate(0,0)"/>
<path d="" fill="#FFFFFF" transform="translate(0,0)"/>
<path d="" fill="#FFFFFF" transform="translate(0,0)"/>
<path d="" fill="#FFFFFF" transform="translate(0,0)"/>
<path d="" fill="#FFFFFF" transform="translate(0,0)"/>
<path d="" fill="#FFFFFF" transform="translate(0,0)"/>
<path d="" fill="#FFFFFF" transform="translate(0,0)"/>
</svg>
